<?xml version="1.0" encoding="UTF-8"?>
<svg version="1.1" xmlns="http://www.w3.org/2000/svg" width="512" height="512">
<path d="M0 0 C1.19885834 -0.00101212 1.19885834 -0.00101212 2.42193604 -0.00204468 C15.41374783 0.01532883 27.97567052 0.72177298 40.75 3.25 C41.64251465 3.42160645 42.5350293 3.59321289 43.45458984 3.77001953 C77.37170026 10.44605235 109.34341591 24.02634128 136.75 45.25 C138.00490234 46.21679688 138.00490234 46.21679688 139.28515625 47.203125 C173.25322784 73.87357379 199.15778447 108.48678512 213.75 149.25 C214.02682617 150.01602539 214.30365234 150.78205078 214.58886719 151.57128906 C219.40804074 165.14519768 222.33334902 179.06877336 224.75 193.25 C224.88422363 194.03665039 225.01844727 194.82330078 225.15673828 195.63378906 C234.13149558 251.35049615 218.09621211 312.25281856 185.26171875 357.75 C182.85224067 360.99352818 180.32265707 364.1350249 177.75 367.25 C177.29544434 367.80606934 176.84088867 368.36213867 176.37255859 368.93505859 C165.71946951 381.90514887 154.15329483 394.09135575 140.75 404.25 C140.1111084 404.73823242 139.4722168 405.22646484 138.81396484 405.72949219 C127.97318754 413.96457815 116.85818836 421.0361741 104.75 427.25 C104.02296875 427.6310791 103.2959375 428.0121582 102.546875 428.40478516 C80.94308107 439.64239694 57.72846871 446.39463836 33.75 450.25 C32.97495117 450.37987305 32.19990234 450.50974609 31.40136719 450.64355469 C10.73389377 453.98063656 -11.61438215 453.70786029 -32.25 450.25 C-33.15395508 450.1046582 -34.05791016 449.95931641 -34.98925781 449.80957031 C-52.00579364 446.99315655 -68.07254135 442.1805163 -84.25 436.25 C-84.96687988 435.99138184 -85.68375977 435.73276367 -86.42236328 435.46630859 C-103.89139418 429.04407623 -120.56486196 418.59138491 -135.25 407.25 C-136.59384766 406.22132813 -136.59384766 406.22132813 -137.96484375 405.171875 C-186.92557177 366.84822348 -215.80012592 313.03765831 -224.59814453 251.82788086 C-225.56937573 243.61411435 -225.4937038 235.32236803 -225.5 227.0625 C-225.50067474 226.26520477 -225.50134949 225.46790955 -225.50204468 224.64645386 C-225.43217031 172.48294942 -207.18579223 121.10562617 -173.25 81.25 C-172.62480469 80.51394531 -171.99960938 79.77789062 -171.35546875 79.01953125 C-169.04059322 76.37712075 -166.66483136 73.80062095 -164.25 71.25 C-163.6607373 70.62673828 -163.07147461 70.00347656 -162.46435547 69.36132812 C-148.56733389 54.78514176 -133.5037536 42.62239273 -116.25 32.25 C-115.65993164 31.88986816 -115.06986328 31.52973633 -114.46191406 31.15869141 C-87.8317482 15.02846014 -58.05259986 5.32101527 -27.25 1.25 C-26.50282715 1.1483252 -25.7556543 1.04665039 -24.98583984 0.94189453 C-16.69152483 -0.04164187 -8.34074983 0.00634269 0 0 Z " fill="#C10909" transform="translate(255.25,29.75)"/>
<path d="M0 0 C2.06311223 2.57127061 4.11298327 5.14710714 6.12109375 7.76171875 C20.10462419 25.42388452 39.50701258 36.31112936 62 39 C73.71240273 39.70732337 84.62473167 38.8549113 96 36 C97.33330707 35.66656164 98.66663497 35.33320654 100 35 C100.05607422 36.79630859 100.05607422 36.79630859 100.11328125 38.62890625 C100.90477848 59.69056064 104.15520612 81.87393301 120.0625 97.25 C134.70862497 109.40104405 152.26859117 112.17232405 170.6875 112.25 C171.89083984 112.270625 173.09417969 112.29125 174.33398438 112.3125 C192.84122791 112.39248809 208.59986031 105.89763445 222 93 C223.98 90.69 225.96 88.38 228 86 C201.6 85.67 175.2 85.34 148 85 C148 61.24 148 37.48 148 13 C202.45 13 256.9 13 313 13 C313.0825 29.850625 313.165 46.70125 313.25 64.0625 C313.28641602 69.37609619 313.32283203 74.68969238 313.36035156 80.16430664 C313.37841797 86.67077637 313.37841797 86.67077637 313.3817749 89.72019958 C313.38790286 91.84242612 313.40194149 93.96463903 313.42230225 96.08677673 C313.45165522 99.30817731 313.45562165 102.52872952 313.45410156 105.75024414 C313.468494 106.68999871 313.48288643 107.62975328 313.497715 108.59798527 C313.46000401 114.58306287 312.40914579 118.05579933 309 123 C308.34 122.319375 307.68 121.63875 307 120.9375 C306.00210382 119.95618936 305.0018696 118.97725364 304 118 C303.19755859 117.18595703 303.19755859 117.18595703 302.37890625 116.35546875 C290.94581623 105.46329912 277.26343186 101.60494231 261.87402344 101.62866211 C248.05315194 101.97346853 236.00101612 107.66068215 225.87890625 116.96484375 C216.55337395 127.06588809 210.27757359 142.33055991 210.69140625 156.23046875 C212.01360304 168.09676649 214.91843279 180.99908845 223.71484375 189.6953125 C225 191 225 191 225 193 C211.76804538 197.09413879 198.76222796 200.34721569 185 202 C183.92234375 202.13148438 182.8446875 202.26296875 181.734375 202.3984375 C137.05912458 206.72562144 89.12307547 197.6086457 53.57421875 168.9921875 C52.37895497 167.99941774 51.1874687 167.00208053 50 166 C49.42072754 165.51563477 48.84145508 165.03126953 48.24462891 164.53222656 C23.66211038 143.70005547 8.75612596 114.25183917 1.25 83.3125 C1.05124268 82.49434814 0.85248535 81.67619629 0.64770508 80.83325195 C-2.43079968 67.48338798 -3.34855205 54.58268136 -3.31567383 40.93334961 C-3.31251665 38.20190345 -3.33605409 35.47154747 -3.36132812 32.74023438 C-3.39971221 21.5104189 -2.38146611 10.97564838 0 0 Z " fill="#FEFEFE" transform="translate(101,218)"/>
<path d="M0 0 C3.51164196 2.83179664 6.78203952 5.8402592 10 9 C10.70125 9.67675781 11.4025 10.35351562 12.125 11.05078125 C25.71562276 25.14574353 31.38462104 44.63290635 31.21484375 63.85546875 C30.39479244 85.38563575 20.97172927 103.36882335 5.421875 118.015625 C-10.78364307 132.56564179 -31.23021005 137.09466734 -52.38769531 136.19091797 C-68.02669341 135.04795568 -82.18244274 128.07899019 -94 118 C-95.20849609 117.08927734 -95.20849609 117.08927734 -96.44140625 116.16015625 C-110.44277444 104.3391538 -118.44454943 85.70086098 -120.22314453 67.74755859 C-120.9879475 56.61595925 -119.35122185 46.59079519 -116 36 C-115.72285156 35.08863281 -115.44570312 34.17726562 -115.16015625 33.23828125 C-109.16145416 16.07148862 -94.19272985 0.89117103 -78 -7 C-51.94164047 -17.84326266 -23.56026771 -16.65076612 0 0 Z " fill="#FEFDFD" transform="translate(216,113)"/>
<path d="M0 0 C19.96658901 18.46802824 35.39387699 43.52485445 37.75561523 71.14160156 C37.84084946 72.12397797 37.92608368 73.10635437 38.01390076 74.11849976 C38.07634476 74.8629837 38.13878876 75.60746765 38.203125 76.37451172 C24.40791794 76.60863212 10.61302102 76.78403887 -3.18376827 76.89263344 C-9.59074367 76.94476197 -15.99638202 77.01543342 -22.40258789 77.12890625 C-28.58835999 77.23778536 -34.77284853 77.29740051 -40.95950508 77.32328415 C-43.3163225 77.34172226 -45.67307178 77.37773012 -48.02934074 77.43181229 C-66.56953003 77.84032282 -66.56953003 77.84032282 -72.09719849 74.20257568 C-74.45922852 71.52832031 -74.45922852 71.52832031 -76.1264801 68.8633728 C-80.46098789 62.40502707 -89.40410576 60.26980691 -96.609375 58.56201172 C-103.97271072 57.16338929 -111.31845685 56.67825699 -118.796875 56.37451172 C-118.75046875 55.21177734 -118.7040625 54.04904297 -118.65625 52.85107422 C-117.93414932 26.79230021 -125.54424506 5.33295367 -143.484375 -13.81298828 C-148.40364497 -18.60097475 -153.85666838 -22.17070735 -159.6953125 -25.71533203 C-162.18905174 -27.25114877 -164.47582046 -28.85128398 -166.796875 -30.62548828 C-110.49630422 -44.49848165 -44.83827765 -40.56158323 0 0 Z " fill="#FEFEFE" transform="translate(373.796875,128.62548828125)"/>
<path d="M0 0 C7.90315212 6.2566621 13.78368241 15.90836502 15 26 C16.12060104 37.11846347 13.32649915 47.96285902 6.68359375 57.0078125 C0.28760142 64.57615609 -8.09904884 70.18818084 -18 72 C-31.46072423 72.97634266 -42.36043037 70.66480102 -53 62 C-60.88745076 54.90765516 -65.21132665 45.06774045 -66.23828125 34.5625 C-66.52762685 24.57246245 -64.2988399 14.62840371 -57.76171875 6.83984375 C-41.26446369 -10.38899691 -20.16642976 -14.60684895 0 0 Z " fill="#FEFEFE" transform="translate(391,341)"/>
<path d="M0 0 C4.71370756 0.64985095 8.57686444 2.51561392 12.8125 4.5625 C13.50537109 4.89185547 14.19824219 5.22121094 14.91210938 5.56054688 C16.61044948 6.36872251 18.30555769 7.18368377 20 8 C19.855625 9.14726562 19.71125 10.29453125 19.5625 11.4765625 C19.19822716 14.38689724 18.84412617 17.29815526 18.5 20.2109375 C18.33333333 21.59895833 18.16666667 22.98697917 18 24.375 C17.9175 25.08527344 17.835 25.79554688 17.75 26.52734375 C17.11278195 31.77443609 17.11278195 31.77443609 16 34 C6.76 34 -2.48 34 -12 34 C-9.73803526 19.29722922 -9.73803526 19.29722922 -7.125 13.0625 C-6.63257812 11.85722656 -6.14015625 10.65195313 -5.6328125 9.41015625 C-3.99267609 5.98470388 -2.18256853 3.09433417 0 0 Z " fill="#C20E0E" transform="translate(117,136)"/>
<path d="M0 0 C6.37225404 11.21577254 11.22337367 20.83491444 11 34 C6.52084672 34.02886338 2.04171709 34.04675187 -2.4375 34.0625 C-3.71689453 34.07087891 -4.99628906 34.07925781 -6.31445312 34.08789062 C-7.52939453 34.09111328 -8.74433594 34.09433594 -9.99609375 34.09765625 C-11.12200928 34.10289307 -12.2479248 34.10812988 -13.40795898 34.11352539 C-16 34 -16 34 -17 33 C-17.2966762 31.4912907 -17.53795307 29.97158032 -17.75390625 28.44921875 C-17.88603516 27.52302734 -18.01816406 26.59683594 -18.15429688 25.64257812 C-18.28900391 24.66740234 -18.42371094 23.69222656 -18.5625 22.6875 C-18.70107422 21.72392578 -18.83964844 20.76035156 -18.98242188 19.76757812 C-19.54336559 15.78018017 -20 12.03735473 -20 8 C-17.2336466 6.65722268 -14.46123789 5.32744772 -11.6875 4 C-10.90181641 3.6184375 -10.11613281 3.236875 -9.30664062 2.84375 C-8.54931641 2.4828125 -7.79199219 2.121875 -7.01171875 1.75 C-6.31522217 1.41484375 -5.61872559 1.0796875 -4.90112305 0.734375 C-3 0 -3 0 0 0 Z " fill="#C20D0D" transform="translate(226,136)"/>
<path d="M0 0 C9.24 0 18.48 0 28 0 C28 11.35322488 24.19545714 22.41769296 18 32 C13.76430589 33.41189804 11.27599933 31.50940347 7.5 29.625 C2.34996806 27.07863397 2.34996806 27.07863397 -3 25 C-2.10565542 16.65278389 -1.04986503 8.32892928 0 0 Z " fill="#C10909" transform="translate(209,179)"/>
<path d="M0 0 C9.24 0 18.48 0 28 0 C29.2215904 2.4431808 29.41099478 4.5130891 29.75390625 7.2265625 C29.95209961 8.7734375 29.95209961 8.7734375 30.15429688 10.3515625 C30.28900391 11.43179688 30.42371094 12.51203125 30.5625 13.625 C30.70107422 14.71296875 30.83964844 15.8009375 30.98242188 16.921875 C31.32486528 19.61418868 31.66391411 22.30688654 32 25 C31.20335937 25.32613281 30.40671875 25.65226562 29.5859375 25.98828125 C22.90045709 28.69269132 22.90045709 28.69269132 16.4375 31.875 C14 33 14 33 11 32 C5.24187889 23.11566001 0 10.77629283 0 0 Z " fill="#C10A0A" transform="translate(105,179)"/>
<path d="M0 0 C0.51211882 2.1429734 1.00904659 4.28957881 1.5 6.4375 C1.7784375 7.63246094 2.056875 8.82742187 2.34375 10.05859375 C3 14 3 14 3 23 C-4.92 23 -12.84 23 -21 23 C-21 16.07 -21 9.14 -21 2 C-18.2775 1.67 -15.555 1.34 -12.75 1 C-11.89889648 0.89558594 -11.04779297 0.79117188 -10.17089844 0.68359375 C-9.15044434 0.56177734 -9.15044434 0.56177734 -8.109375 0.4375 C-7.07248535 0.31181641 -7.07248535 0.31181641 -6.01464844 0.18359375 C-4.01710903 0.00155914 -2.00581661 0 0 0 Z " fill="#C20F0F" transform="translate(197,147)"/>
<path d="M0 0 C7.00446058 0.62587385 14.00353347 1.29021354 21 2 C21 8.6 21 15.2 21 22 C13.08 22 5.16 22 -3 22 C-3 10.75 -3 10.75 -1.5 5.375 C-1.2215625 4.35148438 -0.943125 3.32796875 -0.65625 2.2734375 C-0.4396875 1.52320313 -0.223125 0.77296875 0 0 Z " fill="#C10909" transform="translate(146,147)"/>
<path d="M0 0 C7.92 0 15.84 0 24 0 C24 6.27 24 12.54 24 19 C17.07 19.99 10.14 20.98 3 22 C0.73400691 13.88019143 0 8.77303517 0 0 Z " fill="#C10909" transform="translate(143,179)"/>
<path d="M0 0 C7.92 0 15.84 0 24 0 C24 8.06992376 22.79976775 14.20100644 21 22 C14.07 21.01 7.14 20.02 0 19 C0 12.73 0 6.46 0 0 Z " fill="#C10909" transform="translate(176,179)"/>
<path d="M0 0 C5.99932374 1.8331267 11.44920563 4.07321751 17 7 C9.64204921 16.74431321 -0.6010965 22.02959541 -12 26 C-12.66 26 -13.32 26 -14 26 C-12.3179153 22.4190671 -10.2399474 19.15252071 -8.125 15.8125 C-4.92500911 10.70076049 -2.27298887 5.5877643 0 0 Z " fill="#C10B0B" transform="translate(202,212)"/>
<path d="M0 0 C11.75643521 1.95940587 24.2033746 7.66020139 31.74609375 17.2109375 C32.36677734 18.09652344 32.36677734 18.09652344 33 19 C30.75564555 20.03516348 28.50593133 21.05314977 26.25 22.0625 C25.61578125 22.35705078 24.9815625 22.65160156 24.328125 22.95507812 C21.81267816 24.0686874 19.54812979 24.96906499 16.78515625 25.125 C13.77828157 23.23007679 12.66463892 20.05004273 11.1875 16.9375 C8.42831245 11.41258034 5.5852141 6.79100204 1.25 2.3203125 C0 1 0 1 0 0 Z " fill="#C10C0C" transform="translate(186,110)"/>
<path d="M0 0 C2.86390984 2.48486295 4.16422719 5.14596139 5.75 8.5625 C8.62375363 14.49051942 12.06102818 19.73249922 16 25 C14 26 14 26 11.56640625 25.25 C1.0798374 20.88627824 -8.06153388 16.18877946 -15 7 C-13.06374902 6.01836578 -11.12595461 5.03977546 -9.1875 4.0625 C-8.10855469 3.51722656 -7.02960938 2.97195312 -5.91796875 2.41015625 C-3 1 -3 1 0 0 Z " fill="#C10B0B" transform="translate(139,212)"/>
<path d="M0 0 C-0.66386719 0.89460938 -1.32773438 1.78921875 -2.01171875 2.7109375 C-7.01957305 9.54017397 -11.58560517 16.2008034 -15 24 C-19.05819183 23.34496718 -22.53971282 22.05440879 -26.3125 20.4375 C-27.38113281 19.98246094 -28.44976562 19.52742188 -29.55078125 19.05859375 C-30.35902344 18.70925781 -31.16726562 18.35992187 -32 18 C-26.7548735 11.05375139 -9.27624017 -4.63812009 0 0 Z " fill="#C10B0B" transform="translate(156,111)"/>
<path d="M0 0 C0 9.57 0 19.14 0 29 C-6.75582741 23.37014383 -6.75582741 23.37014383 -8.44921875 20.6953125 C-9.00899414 19.81939453 -9.00899414 19.81939453 -9.58007812 18.92578125 C-9.94552734 18.33152344 -10.31097656 17.73726562 -10.6875 17.125 C-11.06455078 16.53847656 -11.44160156 15.95195312 -11.83007812 15.34765625 C-14.33353785 11.37183016 -16.24485496 7.3572172 -18 3 C-12.10072374 1.11725226 -6.2160442 0 0 0 Z " fill="#C10B0B" transform="translate(167,207)"/>
<path d="M0 0 C5.61 0.66 11.22 1.32 17 2 C14.87336297 12.63318514 8.23327666 21.1271494 1 29 C0.67 29 0.34 29 0 29 C0 19.43 0 9.86 0 0 Z " fill="#C10A0A" transform="translate(176,207)"/>
<path d="M0 0 C0 8.91 0 17.82 0 27 C-13 26 -13 26 -17 25 C-15.35641564 19.53207545 -6.94289321 0 0 0 Z " fill="#C10A0A" transform="translate(167,113)"/>
<path d="M0 0 C5.16999439 4.43142376 8.48566579 7.57556195 11.875 13.125 C12.45894531 14.03572266 12.45894531 14.03572266 13.0546875 14.96484375 C14.89698733 17.90100911 16.46683092 20.54300048 17 24 C15.4811541 24.34227513 13.95977467 24.67331214 12.4375 25 C11.59058594 25.185625 10.74367187 25.37125 9.87109375 25.5625 C7 26 7 26 0 26 C0 17.42 0 8.84 0 0 Z " fill="#C10A0A" transform="translate(176,114)"/>
</svg>
