<?xml version="1.0" standalone="no"?>
<!DOCTYPE svg PUBLIC "-//W3C//DTD SVG 20010904//EN"
 "http://www.w3.org/TR/2001/REC-SVG-20010904/DTD/svg10.dtd">
<svg version="1.0" xmlns="http://www.w3.org/2000/svg"
 width="255.000000pt" height="357.000000pt" viewBox="0 0 255.000000 357.000000"
 preserveAspectRatio="xMidYMid meet">
<metadata>
Created by potrace 1.16, written by Peter Selinger 2001-2019
</metadata>
<g transform="translate(0.000000,357.000000) scale(0.100000,-0.100000)"
fill="#000000" stroke="none">
<path d="M880 3560 l-25 -8 25 -2 c14 -1 -13 -10 -59 -21 -99 -22 -122 -18
-29 5 57 14 59 15 15 10 -54 -6 -134 -32 -102 -33 11 -1 -50 -25 -135 -55 -85
-29 -164 -56 -175 -60 -19 -7 -20 -7 -1 5 11 7 81 34 155 60 75 26 131 48 124
48 -33 2 -318 -106 -322 -121 -1 -4 -11 -40 -22 -80 -27 -97 -60 -156 -122
-214 l-51 -49 51 56 c46 50 94 126 93 146 -1 4 -13 -14 -27 -42 -14 -27 -53
-77 -87 -109 -33 -33 -54 -56 -47 -51 9 5 12 4 7 -3 -4 -6 -13 -9 -20 -6 -8 3
-32 -4 -55 -15 -22 -12 -47 -21 -56 -21 -14 0 -15 -91 -15 -919 1 -518 5 -931
10 -947 7 -23 8 -19 5 21 -4 49 -4 49 10 -13 8 -35 24 -93 35 -129 22 -72 24
-85 10 -63 -20 31 -10 -14 11 -50 19 -32 19 -27 2 18 -15 41 7 0 45 -80 46
-99 48 -118 3 -30 -17 31 -30 53 -30 47 -1 -19 87 -170 97 -168 6 1 27 -21 48
-50 21 -28 30 -46 21 -38 -9 7 -26 29 -38 48 -12 19 -24 32 -27 29 -5 -6 74
-112 92 -123 6 -4 4 2 -4 13 -9 12 -5 11 13 -5 28 -25 38 -43 12 -21 -9 7 -15
8 -15 2 0 -15 154 -158 235 -217 125 -92 264 -169 425 -234 76 -32 107 -39 80
-20 -19 13 22 3 65 -17 30 -14 30 -14 -35 3 -8 2 3 -6 25 -17 43 -21 84 -29
55 -10 -18 12 -2 12 25 0 13 -6 15 -9 5 -9 -13 -1 -13 -2 0 -11 8 -5 22 -10
30 -10 13 0 13 2 0 11 -12 9 -11 9 5 3 26 -10 94 -10 120 0 16 6 17 6 5 -3
-13 -9 -13 -11 0 -11 8 0 22 5 30 10 13 9 13 10 0 10 -13 0 -13 1 0 10 8 5 22
10 30 10 13 0 13 -1 0 -10 -13 -9 -13 -10 0 -10 21 1 98 38 80 40 -8 0 23 16
69 35 90 37 111 43 71 20 -14 -8 -19 -14 -12 -15 17 0 220 99 228 112 3 5 -35
-11 -85 -36 -50 -25 -94 -46 -98 -46 -5 0 46 29 112 63 66 34 149 82 184 106
35 24 61 39 57 33 -3 -6 -40 -32 -81 -58 -41 -26 -73 -49 -71 -52 6 -5 145 87
206 137 69 56 190 172 190 183 0 6 -8 4 -17 -3 -10 -7 -7 -1 6 14 28 30 40 36
21 10 -7 -10 2 -2 20 17 55 61 171 250 170 277 -1 4 -14 -18 -31 -50 -45 -87
-43 -68 3 31 38 80 60 121 45 80 -17 -45 -17 -50 2 -18 21 36 31 81 11 50 -14
-22 -12 -9 10 63 11 36 27 94 35 129 14 62 14 62 10 13 -3 -40 -2 -44 5 -21 5
16 9 423 10 931 l1 902 -58 21 c-32 12 -67 28 -78 37 -12 10 -3 8 23 -5 64
-31 60 -20 -4 14 -30 16 -75 52 -101 80 -25 28 -41 41 -34 28 7 -13 31 -42 54
-64 27 -27 33 -35 15 -24 -28 18 -65 63 -87 105 -8 15 -9 21 -2 17 14 -9 14 0
-1 27 -6 12 -19 54 -28 92 -9 39 -20 70 -25 70 -6 0 -19 6 -30 14 l-20 13 20
-7 c12 -4 16 -3 10 3 -33 30 -382 147 -469 157 l-41 5 43 -11 c68 -16 43 -21
-29 -5 -35 8 -53 15 -39 16 l25 2 -27 8 c-34 10 -754 10 -788 0z m514 -280
c88 0 94 -14 30 -67 -38 -30 -43 -39 -38 -66 l4 -32 -11 30 c-12 28 -10 31 37
72 61 54 48 57 -16 3 l-48 -40 23 -75 c12 -41 20 -75 17 -75 -3 0 -31 20 -62
44 l-57 45 -34 -29 c-19 -16 -30 -29 -25 -30 6 0 20 10 33 22 l23 21 39 -27
c22 -15 48 -37 58 -49 10 -12 -2 -6 -27 14 -70 55 -66 55 -125 5 -29 -25 -56
-46 -60 -46 -4 0 8 12 25 26 17 15 28 29 25 32 -2 3 -14 -3 -25 -13 -11 -10
-22 -16 -24 -14 -2 2 6 37 19 76 l23 73 -48 40 c-64 53 -77 51 -17 -2 l48 -43
-22 -73 c-12 -40 -24 -70 -26 -68 -3 2 5 35 17 73 l21 68 -43 37 c-61 52 -57
62 27 68 l70 5 17 50 c9 28 19 59 23 70 5 15 13 2 32 -52 l25 -73 72 0z m-364
-215 c-5 -22 -10 -73 -10 -113 l0 -73 -61 -72 c-168 -199 -273 -422 -314 -667
-10 -58 -22 -109 -27 -115 -12 -14 -10 10 12 131 41 231 113 450 213 649 63
127 182 314 192 303 2 -2 0 -21 -5 -43z m569 -69 c158 -243 270 -540 325 -861
18 -103 20 -123 8 -110 -5 6 -17 57 -27 115 -41 246 -145 466 -313 666 l-59
70 -5 100 c-3 54 -9 108 -14 119 -17 42 25 -6 85 -99z m-689 -41 c-101 -166
-190 -379 -245 -589 -38 -146 -65 -289 -65 -347 0 -21 -5 -41 -11 -45 -9 -5
-10 47 -6 202 6 235 27 386 78 546 l30 96 57 28 c37 18 82 54 127 100 39 40
71 73 72 74 2 0 -15 -29 -37 -65z m892 -109 l57 -28 30 -96 c51 -160 72 -311
78 -546 4 -136 2 -207 -4 -203 -6 4 -13 40 -16 81 -23 265 -154 650 -309 906
l-40 65 74 -76 c47 -48 93 -85 130 -103z m-382 -123 c30 -8 76 -26 102 -39 53
-27 62 -29 52 -13 -13 22 33 -10 87 -60 30 -26 57 -49 62 -50 4 0 7 -4 6 -7 0
-4 3 -10 8 -13 4 -3 17 -22 27 -41 11 -19 15 -32 11 -28 -4 4 -14 -4 -21 -18
-12 -23 -10 -33 26 -105 22 -43 37 -79 33 -79 -5 0 -23 9 -41 20 -18 11 -35
20 -37 20 -3 0 -10 -20 -16 -45 -6 -25 -14 -45 -18 -45 -4 0 -26 39 -49 86
-34 69 -40 89 -31 100 18 22 -76 108 -166 151 -168 79 -363 44 -497 -90 -39
-39 -46 -51 -37 -65 9 -14 2 -34 -32 -97 -24 -44 -47 -83 -53 -87 -14 -9 -26
0 -25 20 0 14 2 14 10 -3 7 -14 8 -9 3 20 -8 56 -10 57 -55 34 l-41 -20 7 23
c4 13 22 51 40 85 22 43 28 63 20 67 -27 10 -23 47 10 90 18 24 32 47 29 50
-2 3 -1 4 2 1 4 -2 27 14 52 36 44 38 141 99 158 99 5 0 -20 -17 -56 -37 -68
-40 -178 -141 -200 -183 -7 -14 16 6 51 44 160 174 366 238 579 179z m-800
-27 c9 -12 7 -37 -9 -118 -33 -164 -41 -259 -42 -473 0 -211 -8 -228 -29 -61
-27 214 13 666 59 666 4 0 14 -6 21 -14z m1357 -36 c42 -145 57 -480 29 -654
-8 -48 -17 -91 -20 -94 -3 -3 -6 84 -6 194 0 212 -8 305 -41 472 -15 81 -17
107 -8 118 18 22 32 12 46 -36z m-1434 -87 c-40 -195 -28 -574 23 -741 5 -15
4 -15 -5 -1 -15 23 -68 222 -86 324 -9 50 -19 156 -22 237 l-5 147 48 50 c27
27 52 49 55 50 3 1 -1 -29 -8 -66z m1506 18 l51 -49 -1 -104 c0 -181 -54 -484
-105 -592 -8 -17 -12 -23 -10 -14 54 197 64 544 22 746 -7 34 -11 62 -10 62 1
0 25 -22 53 -49z m-901 -120 c-26 -10 -63 -28 -82 -40 -37 -23 -126 -117 -126
-133 0 -5 25 18 56 51 38 41 77 71 122 93 60 30 75 33 157 33 77 0 98 -4 148
-27 31 -15 82 -50 112 -79 173 -164 172 -446 -2 -616 -29 -29 -50 -53 -45 -53
5 0 32 23 59 50 95 95 142 224 130 358 -6 63 -5 65 7 31 7 -20 11 -53 10 -73
-2 -21 1 -34 6 -31 5 3 3 -10 -5 -29 -18 -43 -19 -49 -2 -40 6 4 4 -2 -6 -14
-13 -14 -17 -28 -12 -44 5 -18 4 -20 -4 -8 -6 8 -11 12 -11 8 0 -3 -3 -14 -7
-24 -5 -13 -3 -15 7 -9 9 5 11 4 6 -4 -4 -6 -12 -8 -18 -5 -8 5 -9 1 -4 -12 4
-10 4 -15 0 -11 -4 3 -24 -18 -45 -47 -59 -83 -186 -167 -249 -165 -19 1 -15
3 13 10 40 9 121 48 115 54 -2 3 -31 -7 -64 -20 -83 -34 -195 -34 -278 0 -33
13 -62 23 -64 20 -6 -6 75 -45 115 -54 30 -7 33 -9 12 -10 -40 -2 -144 55
-198 108 -27 26 -63 72 -81 102 -17 30 -30 44 -27 32 3 -13 0 -23 -5 -23 -7 0
-8 14 -5 35 3 20 3 33 -1 31 -12 -7 -33 195 -23 208 5 6 11 20 14 31 2 11 2
-11 -1 -50 -9 -134 38 -262 130 -354 28 -28 55 -51 60 -51 5 0 -16 24 -45 53
-65 63 -103 135 -123 230 -17 82 -8 173 26 252 23 54 24 59 9 49 -23 -14 15
42 64 93 48 51 152 114 186 113 9 -1 -5 -9 -31 -19z m-727 -54 c11 -9 18 -38
23 -107 8 -114 36 -258 78 -400 68 -234 68 -284 0 -92 -77 214 -115 374 -128
532 -7 81 -3 90 27 67z m1739 -31 c0 -115 -64 -388 -137 -586 -64 -172 -61
-114 5 110 41 139 70 284 78 400 5 69 12 98 23 107 26 20 31 15 31 -31z
m-1765 -146 c20 -121 76 -326 127 -459 55 -147 46 -169 -20 -49 -64 115 -170
347 -177 387 -2 15 -12 47 -20 71 -21 60 -20 64 28 138 40 63 42 64 45 36 1
-16 9 -72 17 -124z m1824 87 c46 -71 47 -77 26 -137 -8 -24 -17 -55 -20 -70
-9 -52 -149 -350 -209 -445 -40 -63 -32 -16 20 125 57 156 112 366 127 493 6
53 12 97 13 97 1 0 20 -28 43 -63z m-1917 -206 c3 -3 36 -74 73 -158 37 -83
100 -209 141 -279 46 -79 71 -131 65 -137 -24 -24 -222 308 -301 508 -17 42
-30 78 -30 81 0 6 42 -6 52 -15z m1992 -3 c-50 -167 -297 -599 -325 -571 -6 6
20 59 65 137 42 71 106 198 143 283 64 146 80 170 116 172 5 1 5 -9 1 -21z
m-2034 -41 c0 -45 178 -377 264 -495 23 -31 45 -73 49 -92 6 -33 1 -29 -96 71
-96 99 -227 272 -227 300 0 6 -10 27 -21 46 -21 34 -21 34 -3 113 10 43 22 76
26 74 5 -3 8 -11 8 -17z m2061 -169 c-11 -20 -21 -42 -21 -48 0 -27 -133 -202
-227 -299 -97 -101 -102 -104 -96 -71 3 19 23 58 44 85 97 130 212 345 273
510 6 15 13 0 28 -60 l21 -80 -22 -37z m-1656 -175 c60 -193 183 -356 322
-427 30 -15 31 -18 22 -48 -15 -52 -1 -119 45 -212 31 -65 38 -87 28 -91 -25
-9 -98 -5 -110 7 -6 6 -31 21 -54 33 -25 12 -55 39 -71 63 -15 22 -36 44 -47
47 -11 4 -20 15 -20 25 0 11 -9 24 -20 30 -11 6 -20 15 -20 21 0 5 -16 26 -36
46 -20 20 -37 41 -38 47 -1 6 -12 27 -24 46 -14 21 -21 45 -18 60 2 14 -7 45
-21 75 -21 41 -24 54 -15 78 8 21 7 38 -5 73 -12 35 -13 51 -4 72 7 18 8 38 2
59 -5 18 -6 48 -1 68 5 21 6 52 3 71 -4 21 1 52 13 82 l18 47 13 -95 c7 -52
24 -132 38 -177z m1302 149 c-3 -24 -1 -60 5 -79 6 -23 6 -45 -2 -67 -8 -25
-8 -40 1 -59 9 -20 8 -35 -4 -71 -12 -35 -13 -52 -5 -73 9 -24 7 -36 -12 -73
-13 -25 -24 -64 -25 -87 -1 -26 -9 -51 -20 -63 -11 -12 -20 -27 -21 -34 -1 -7
-18 -29 -38 -49 -20 -20 -36 -41 -36 -46 0 -6 -9 -15 -20 -21 -11 -6 -20 -19
-20 -30 0 -10 -9 -21 -20 -25 -11 -3 -32 -25 -47 -47 -16 -24 -46 -51 -71 -63
-23 -12 -48 -27 -54 -33 -11 -11 -109 -17 -119 -7 -3 2 15 46 40 97 43 87 46
98 45 169 -1 74 0 77 25 89 80 36 185 145 249 260 46 81 90 224 104 334 l12
97 19 -37 c14 -27 18 -50 14 -82z m-1731 -39 c8 -10 43 -58 77 -108 34 -49
115 -143 180 -209 137 -137 154 -182 30 -76 -123 104 -299 315 -329 393 -8 23
21 22 42 0z m2120 0 c-30 -78 -206 -289 -329 -393 -124 -106 -107 -61 30 76
65 66 146 160 180 209 34 50 69 98 77 108 21 22 50 23 42 0z m-2100 -118 c69
-100 190 -230 277 -300 66 -53 95 -90 82 -103 -3 -3 -60 22 -127 56 -148 73
-241 146 -293 231 -32 54 -35 65 -27 94 6 17 13 49 17 71 3 21 10 35 14 30 4
-5 30 -40 57 -79z m2123 -8 c11 -46 10 -51 -22 -105 -49 -83 -148 -162 -295
-234 -67 -34 -124 -59 -127 -56 -13 13 16 50 82 103 89 71 228 223 292 319 50
75 45 78 70 -27z m-2029 -278 c67 -44 177 -100 247 -124 29 -11 53 -23 53 -27
0 -10 6 -12 -85 18 -150 49 -252 109 -353 213 -45 45 -60 66 -51 72 9 5 33
-13 73 -54 34 -34 86 -78 116 -98z m2018 111 c-87 -109 -224 -195 -403 -251
-70 -22 -65 -21 -65 -11 0 4 24 16 53 26 139 49 319 163 386 246 19 24 37 37
46 34 11 -5 8 -14 -17 -44z m-849 -35 c1 -20 -6 -34 -18 -42 -18 -11 -20 -9
-24 15 -4 24 -4 23 -6 -7 0 -19 -9 -40 -18 -47 -10 -7 -13 -14 -8 -14 6 0 25
14 43 30 38 34 40 34 94 18 45 -13 45 -29 -2 -44 -18 -6 -27 -13 -20 -16 25
-8 0 -28 -35 -28 -49 0 -85 19 -91 49 -10 44 -12 47 -13 15 -1 -31 -31 -70
-44 -57 -14 14 -6 79 13 108 17 25 20 27 20 10 0 -15 5 -12 21 15 19 30 23 32
28 17 6 -15 10 -11 25 20 19 37 19 38 27 13 4 -14 7 -39 8 -55z m-1277 -40
c88 -83 205 -149 331 -186 65 -19 107 -39 81 -39 -28 0 -197 32 -244 46 -56
16 -151 61 -160 74 -3 4 -24 17 -47 28 l-41 22 -4 65 c-1 36 -1 65 1 65 2 0
39 -34 83 -75z m2148 10 c-5 -64 -6 -67 -45 -90 -136 -82 -201 -106 -350 -130
-107 -18 -112 -18 -99 -6 5 5 41 19 81 30 126 38 244 103 330 186 43 41 80 74
83 75 3 0 3 -29 0 -65z m-1014 -120 c52 -42 94 -78 94 -81 0 -15 -72 -240 -79
-247 -4 -4 -61 -6 -126 -5 l-118 3 -38 125 c-30 98 -35 127 -26 139 10 11 9
13 -3 9 -16 -5 -18 -33 -6 -83 4 -19 0 -13 -12 15 -17 40 -17 47 -3 63 8 10
21 15 28 13 7 -3 49 24 94 59 45 36 87 65 92 65 5 0 52 -34 103 -75z m-954
-129 c42 -9 121 -19 177 -22 56 -4 101 -10 101 -14 0 -4 -33 -13 -72 -20 -89
-16 -256 -14 -320 3 -42 11 -50 18 -73 62 -14 28 -25 51 -25 51 0 1 30 -8 68
-21 37 -13 101 -31 144 -39z m1893 8 c-23 -48 -27 -51 -81 -63 -31 -7 -98 -13
-148 -13 -92 -1 -236 19 -236 32 0 4 45 10 101 14 117 7 227 28 319 60 36 13
66 22 67 21 1 0 -9 -23 -22 -51z m-1561 -93 c11 -17 -204 -103 -289 -115 -36
-5 -44 -2 -87 37 l-47 42 117 3 c69 1 152 9 202 21 47 10 88 19 92 20 4 0 9
-3 12 -8z m1163 -17 c48 -9 136 -17 195 -17 l108 -1 -48 -43 c-44 -40 -50 -42
-92 -36 -82 11 -295 97 -283 115 3 5 11 7 19 4 8 -3 53 -13 101 -22z m-1103
-53 c3 -4 -27 -44 -67 -87 l-73 -78 -68 30 -68 29 39 14 c21 8 74 34 118 57
81 42 110 51 119 35z m1050 -40 c56 -26 111 -52 124 -57 21 -8 16 -12 -44 -39
l-68 -29 -73 78 c-67 73 -79 96 -51 96 6 0 57 -22 112 -49z m-374 -101 c121
-13 247 -32 259 -39 8 -6 53 -202 47 -208 -1 -1 -18 2 -37 7 -19 6 -90 20
-159 32 -231 40 -551 29 -793 -27 l-58 -14 6 32 c27 141 37 176 53 181 136 38
485 56 682 36z m430 -109 c0 -5 -19 -25 -42 -45 -24 -19 -40 -37 -38 -39 3 -3
40 -28 84 -56 l79 -51 -209 1 -209 1 80 18 c44 11 95 19 113 19 39 1 39 -2 7
139 -5 21 -3 22 65 22 38 0 70 -4 70 -9z m-1164 -38 c-20 -121 -20 -113 4
-113 35 0 152 -22 146 -27 -7 -8 -316 -9 -316 -1 0 4 27 23 60 43 33 20 62 41
66 46 3 6 -11 28 -32 50 l-38 39 58 0 59 0 -7 -37z m384 -71 c0 -79 -65 -176
-127 -188 -41 -8 -99 40 -89 74 6 17 15 22 42 22 19 0 34 -5 34 -10 0 -6 8 -5
20 2 14 9 20 24 20 50 0 46 21 68 66 68 26 0 34 -4 34 -18z m344 12 c11 -4 16
-20 16 -53 0 -39 4 -48 25 -58 14 -6 25 -7 25 -2 0 5 15 9 34 9 27 0 36 -5 42
-22 10 -34 -48 -82 -89 -74 -45 9 -92 59 -111 118 -24 74 -22 88 13 88 16 0
36 -3 45 -6z m-631 -176 c-23 -11 -53 -82 -53 -125 0 -26 28 -99 35 -92 2 3
-3 24 -11 48 -13 40 -13 49 2 98 15 47 20 53 38 47 12 -3 27 -13 34 -22 11
-14 12 -14 12 0 0 9 -12 21 -27 26 l-28 10 26 1 c29 1 49 -15 49 -41 0 -22 10
-22 165 -3 66 8 147 15 180 15 33 0 114 -7 180 -15 143 -18 168 -19 160 -4
-11 16 25 49 54 49 25 -1 25 -1 -6 -15 -31 -13 -45 -35 -23 -35 6 0 10 5 10
11 0 5 14 15 32 21 29 10 30 12 13 25 -11 7 -14 13 -8 13 18 0 52 -48 64 -90
16 -54 4 -105 -36 -148 -33 -37 -34 -37 -122 -38 l-88 -2 87 7 c54 4 92 12
100 20 11 12 10 13 -7 7 -45 -16 -116 -17 -223 -2 -62 9 -146 16 -187 16 -41
0 -125 -7 -187 -16 -107 -15 -178 -14 -223 2 -17 6 -18 5 -7 -7 8 -8 46 -16
100 -20 l87 -7 -88 2 c-88 1 -89 1 -122 38 -44 47 -53 95 -31 164 16 49 36 74
61 73 6 0 0 -5 -12 -11z"/>
<path d="M1165 2246 c-57 -60 -193 -134 -207 -113 -6 9 -8 8 -8 -2 0 -9 -7
-11 -22 -8 -21 5 -21 5 -5 -7 17 -13 25 -32 8 -22 -5 3 -14 -1 -20 -8 -10 -12
-8 -13 8 -9 18 5 21 1 21 -26 0 -33 -8 -39 -28 -19 -7 7 -12 9 -12 6 0 -4 7
-14 16 -23 14 -13 14 -18 2 -32 -12 -15 -11 -15 9 -5 29 16 35 4 28 -62 -4
-33 -2 -57 4 -61 7 -4 8 0 4 11 -12 32 22 44 75 28 63 -19 97 -18 165 6 31 11
63 20 72 20 9 0 41 -9 72 -20 66 -23 100 -25 154 -8 22 6 42 8 46 4 12 -12
-14 -28 -67 -42 -46 -12 -57 -11 -113 6 -77 25 -106 25 -183 1 -66 -21 -125
-16 -172 15 -22 15 -23 15 -12 -5 9 -18 8 -23 -12 -31 l-23 -9 24 0 c18 -1 22
-5 17 -18 -6 -17 -5 -17 7 -1 13 16 15 16 35 -5 17 -18 19 -26 10 -35 -12 -12
1 -16 42 -13 8 0 22 -3 30 -9 12 -8 13 -13 3 -29 -11 -17 -10 -19 3 -14 8 3
21 -2 29 -13 7 -11 17 -16 21 -11 4 4 2 7 -4 7 -7 0 -12 9 -12 19 0 11 -6 22
-12 25 -7 3 -3 3 10 0 12 -3 22 -1 22 3 0 11 64 43 85 43 21 0 85 -32 85 -43
0 -5 7 -7 15 -4 8 4 17 2 20 -3 11 -18 43 -6 41 15 -1 19 -4 20 -28 11 -22 -8
-37 -5 -78 14 -55 26 -45 27 -143 -13 -24 -10 -35 -8 -74 13 -67 36 -69 56 -4
30 l52 -20 56 24 c39 16 64 21 78 16 11 -5 37 -15 58 -24 33 -15 41 -15 73 -1
42 17 64 19 64 5 0 -5 -6 -10 -14 -10 -8 0 -17 -4 -20 -8 -2 -4 13 -7 33 -7
37 0 71 18 71 37 0 6 -9 0 -19 -13 -15 -18 -22 -21 -31 -13 -18 18 6 57 31 51
10 -3 19 -1 19 4 0 5 7 9 15 9 15 0 40 38 31 48 -3 3 -6 1 -6 -4 0 -20 -17
-34 -33 -28 -24 9 0 57 25 51 10 -3 15 -1 12 5 -3 5 2 16 12 23 18 13 18 14
-3 8 -17 -4 -23 -1 -23 11 0 20 -3 20 -71 0 -66 -20 -111 -20 -168 0 -55 20
-97 20 -152 0 -24 -8 -62 -15 -84 -15 -50 0 -157 33 -163 49 -5 16 24 15 84
-3 66 -20 104 -19 164 5 28 11 62 20 75 20 13 0 47 -9 75 -20 62 -24 92 -25
171 -3 52 14 62 15 70 2 7 -11 9 -11 9 0 0 9 7 11 21 8 16 -4 19 -3 11 5 -9 9
-8 16 3 28 14 15 13 17 -7 16 -33 -1 -38 41 -6 54 23 10 23 10 1 6 -38 -7
-181 71 -240 131 -29 29 -57 53 -63 53 -6 0 -10 -39 -10 -105 l0 -105 140 0
c128 0 140 -2 140 -18 0 -10 5 -23 12 -30 13 -13 17 -12 -95 -38 -82 -19 -72
-20 -200 19 -32 10 -47 8 -107 -13 -65 -23 -73 -23 -127 -11 -32 7 -72 15 -89
18 -25 4 -31 9 -27 24 5 18 20 19 317 21 l311 3 -310 2 c-186 2 -313 7 -319
13 -7 7 40 10 137 10 l147 0 0 105 c0 78 -3 105 -12 104 -7 0 -35 -24 -63 -53z
m-84 -306 c40 -10 53 -9 104 9 74 26 103 26 180 0 61 -20 61 -20 135 -1 54 14
77 17 82 8 12 -18 -13 -34 -84 -53 -55 -14 -74 -15 -105 -6 -131 40 -118 39
-193 13 -65 -23 -73 -23 -127 -11 -32 7 -67 13 -79 13 -16 0 -21 7 -21 28 0
30 -5 30 108 0z m266 -84 c65 -25 89 -26 143 -10 28 8 55 13 58 10 3 -3 -2 -6
-10 -6 -9 0 -21 -7 -28 -15 -7 -9 -15 -13 -17 -11 -3 2 -23 -2 -45 -10 -55
-19 -81 -18 -125 6 -21 11 -42 20 -48 20 -6 0 -27 -9 -48 -20 -44 -24 -70 -25
-126 -5 -22 8 -41 12 -41 8 0 -3 -7 0 -15 7 -8 6 -19 9 -24 5 -6 -3 -8 0 -5 8
4 13 12 13 50 1 46 -14 87 -10 139 12 40 17 96 17 142 0z"/>
<path d="M1242 1343 c-39 -19 -92 -77 -92 -101 0 -9 -3 -27 -6 -39 -6 -21 -3
-23 40 -23 51 0 56 -8 26 -35 -11 -10 -20 -21 -20 -25 0 -3 36 -6 80 -7 81 0
92 4 65 27 -34 28 -12 47 48 41 20 -3 21 5 6 65 -8 32 -22 52 -48 72 -50 39
-63 42 -99 25z"/>
</g>
</svg>
